# xmcd
#
# Track frame offsets: 
#        150
#        16847
#        45172
#        64362
#        87710
#        114620
#        124740
#        146370
#        156437
#        183215
#        192395
#        213662
#        225362
#        248445
#
# Disc length: 3562 seconds
#
# Revision: 4
# Processed by: cddbd v1.5.1PL2 Copyright (c) Steve Scherf et al.
# Submitted via: ExactAudioCopy v0.95b3
#
DISCID=bb0de80e
DTITLE=Various Artist - Forever Wild - Disc One
DYEAR=1996
DGENRE=New Age
TTITLE0=Michael Whalen - The Dark and the Light
TTITLE1=Kostia - American Fields
TTITLE2=Eric Tingstad - Magnolia
TTITLE3=Michael Whalen - Canyon Wind
TTITLE4=Michael Gettel - Shelter
TTITLE5=Michael Whalen - Winding to Infinity
TTITLE6=Wayne Gratz - Pathway to Waterrock
TTITLE7=Michael Whalen - Peril in the Timberland
TTITLE8=David Arkenstone - Magic Forest
TTITLE9=Michael Whalen - Rain
TTITLE10=Kostia - Secret Garden
TTITLE11=Michael Whalen - Song of the Everglades
TTITLE12=Michael Whalen - Through the Parched Land: Desert Flower
TTITLE13=Michael Whalen - The Puritan's Dream
EXTD=
EXTT0=
EXTT1=
EXTT2=
EXTT3=
EXTT4=
EXTT5=
EXTT6=
EXTT7=
EXTT8=
EXTT9=
EXTT10=
EXTT11=
EXTT12=
EXTT13=
PLAYORDER=
